<svg version="1.1" xmlns="http://www.w3.org/2000/svg" viewBox="0 0 967 319" width="1934" height="638" filter="invert(93%) hue-rotate(180deg)">
  <!-- svg-source:excalidraw -->
  
  <defs>
    <style class="style-fonts">
      @font-face {
        font-family: "Virgil";
        src: url("https://excalidraw.com/Virgil.woff2");
      }
      @font-face {
        font-family: "Cascadia";
        src: url("https://excalidraw.com/Cascadia.woff2");
      }
      @font-face {
        font-family: "Assistant";
        src: url("https://excalidraw.com/Assistant-Regular.woff2");
      }
    </style>
    
  </defs>
  <g stroke-linecap="round" transform="translate(10 118) rotate(0 117 46)"><path d="M23 0 C80.96 0.18, 137.53 -0.56, 211 0 M23 0 C65.89 -1.71, 108.23 -2.1, 211 0 M211 0 C227.39 -0.64, 233.25 9.58, 234 23 M211 0 C224.11 0.29, 233.41 6.55, 234 23 M234 23 C232.23 40.05, 233.83 55.88, 234 69 M234 23 C234.77 39.14, 235.04 57.4, 234 69 M234 69 C234.53 83.35, 224.54 92.4, 211 92 M234 69 C236.24 85.2, 227.19 93.91, 211 92 M211 92 C170.45 88.56, 132.52 92.18, 23 92 M211 92 C150.65 91.25, 90.95 89.63, 23 92 M23 92 C7.41 92.55, -1.25 84.7, 0 69 M23 92 C5.87 90.26, 1.35 85.53, 0 69 M0 69 C-1.59 56.41, 1.88 44.59, 0 23 M0 69 C-0.54 54.54, 0.53 38.95, 0 23 M0 23 C-0.47 9.01, 8.95 0.08, 23 0 M0 23 C1.86 8.22, 6.15 0.94, 23 0" stroke="#1e1e1e" stroke-width="1" fill="none"></path></g><g transform="translate(86.67499923706055 151.5) rotate(0 40.32500076293945 12.5)"><text x="40.32500076293945" y="0" font-family="Virgil, Segoe UI Emoji" font-size="20px" fill="#1e1e1e" text-anchor="middle" style="white-space: pre;" direction="ltr" dominant-baseline="text-before-edge">sömi-wöb</text></g><g stroke-linecap="round" transform="translate(382 115) rotate(0 117 46)"><path d="M23 0 C70.15 -1.85, 120.81 -1.12, 211 0 M23 0 C75.57 -2.3, 128.2 -0.69, 211 0 M211 0 C226.75 -0.02, 233.69 8.34, 234 23 M211 0 C228.05 0.41, 234.83 6.49, 234 23 M234 23 C233.47 34.2, 235.74 42.82, 234 69 M234 23 C232.66 38.19, 232.81 55.86, 234 69 M234 69 C232.12 85.65, 227.74 92.92, 211 92 M234 69 C233 84.69, 224.12 93.69, 211 92 M211 92 C172.17 89.05, 129.58 91.92, 23 92 M211 92 C163.33 91.21, 113.88 91.18, 23 92 M23 92 C9.36 90.66, -1.84 84.5, 0 69 M23 92 C7.41 90.57, -0.48 82.11, 0 69 M0 69 C1.01 59.12, 0.99 44.3, 0 23 M0 69 C-1.08 54.73, -0.88 42.71, 0 23 M0 23 C1.93 6.72, 5.86 -1.57, 23 0 M0 23 C-0.9 8.34, 6.2 -1.8, 23 0" stroke="#1e1e1e" stroke-width="1" fill="none"></path></g><g transform="translate(455.5 148.5) rotate(0 43.5 12.5)"><text x="43.5" y="0" font-family="Virgil, Segoe UI Emoji" font-size="20px" fill="#1e1e1e" text-anchor="middle" style="white-space: pre;" direction="ltr" dominant-baseline="text-before-edge">sömi-mön</text></g><g stroke-linecap="round" transform="translate(717 10) rotate(0 117 46)"><path d="M23 0 C64 1.28, 105.08 2.31, 211 0 M23 0 C86.59 -1.55, 149.87 -0.92, 211 0 M211 0 C226.76 0.09, 233.7 9.42, 234 23 M211 0 C228.04 -0.79, 232.73 8.66, 234 23 M234 23 C234.85 36.29, 233.44 45.4, 234 69 M234 23 C234.31 40.84, 234.29 56.9, 234 69 M234 69 C232.64 84.73, 227.23 92.16, 211 92 M234 69 C233.63 82.57, 225.19 91.49, 211 92 M211 92 C153.5 94.21, 99.78 95.41, 23 92 M211 92 C168.15 89.85, 124.17 89.79, 23 92 M23 92 C8.87 93.59, -1.01 84.87, 0 69 M23 92 C9.34 89.96, -0.99 85.96, 0 69 M0 69 C-0.7 59.02, -1.34 49.58, 0 23 M0 69 C0.44 55.81, 0.91 41.06, 0 23 M0 23 C1.8 8.44, 6.22 -0.32, 23 0 M0 23 C-2.14 9.02, 9.13 1.11, 23 0" stroke="#1e1e1e" stroke-width="1" fill="none"></path></g><g transform="translate(768.6416702270508 43.5) rotate(0 65.35832977294922 12.5)"><text x="65.35832977294922" y="0" font-family="Virgil, Segoe UI Emoji" font-size="20px" fill="#1e1e1e" text-anchor="middle" style="white-space: pre;" direction="ltr" dominant-baseline="text-before-edge">External API</text></g><g stroke-linecap="round" transform="translate(723 217) rotate(0 117 46)"><path d="M23 0 C75.37 -0.36, 129.37 -0.45, 211 0 M23 0 C92.92 -2.54, 162.09 -0.82, 211 0 M211 0 C226.02 -0.22, 234.41 9.11, 234 23 M211 0 C227.91 2.3, 234.38 6.96, 234 23 M234 23 C235.62 39.84, 231.89 59.13, 234 69 M234 23 C233.89 34.17, 234.55 44.57, 234 69 M234 69 C232.81 82.96, 227.61 91.18, 211 92 M234 69 C235.35 84.05, 225.07 93.8, 211 92 M211 92 C152.16 89.8, 90.06 91.07, 23 92 M211 92 C142.8 91.48, 75.26 91.09, 23 92 M23 92 C7.11 93.93, -1.76 85.14, 0 69 M23 92 C8.5 90.94, 0.34 85.36, 0 69 M0 69 C1.99 55.97, 1.48 45.2, 0 23 M0 69 C-0.33 59.32, -0.44 48.63, 0 23 M0 23 C-0.16 9.52, 7.43 -1.28, 23 0 M0 23 C0.9 8.25, 7.34 2.18, 23 0" stroke="#1e1e1e" stroke-width="1" fill="none"></path></g><g transform="translate(795.0250015258789 250.5) rotate(0 44.974998474121094 12.5)"><text x="44.974998474121094" y="0" font-family="Virgil, Segoe UI Emoji" font-size="20px" fill="#1e1e1e" text-anchor="middle" style="white-space: pre;" direction="ltr" dominant-baseline="text-before-edge">sömi-wörs</text></g><g stroke-linecap="round"><g transform="translate(253 162.50822368421052) rotate(0 58.5 0.11941617630296264)"><path d="M-0.73 0.42 C18.6 0.28, 96.58 0.15, 116.27 -0.02 M1.09 -0.4 C20.78 -0.43, 99.3 1.27, 118.6 1.38" stroke="#1e1e1e" stroke-width="1" fill="none"></path></g><g transform="translate(253 162.50822368421052) rotate(0 58.5 0.11941617630296264)"><path d="M22.74 -8.21 C15.85 -6.75, 7.07 -2, -0.73 0.42 M22.74 -8.21 C17.42 -6.34, 11.45 -3.44, -0.73 0.42" stroke="#1e1e1e" stroke-width="1" fill="none"></path></g><g transform="translate(253 162.50822368421052) rotate(0 58.5 0.11941617630296264)"><path d="M22.8 8.89 C15.78 4.77, 6.97 3.95, -0.73 0.42 M22.8 8.89 C17.47 6.84, 11.49 5.83, -0.73 0.42" stroke="#1e1e1e" stroke-width="1" fill="none"></path></g><g transform="translate(253 162.50822368421052) rotate(0 58.5 0.11941617630296264)"><path d="M94.99 9.59 C103.33 5.84, 109.89 5.1, 118.6 1.38 M94.99 9.59 C100.46 7.8, 105.27 6.84, 118.6 1.38" stroke="#1e1e1e" stroke-width="1" fill="none"></path></g><g transform="translate(253 162.50822368421052) rotate(0 58.5 0.11941617630296264)"><path d="M95.23 -7.51 C103.61 -5.69, 110.09 -0.85, 118.6 1.38 M95.23 -7.51 C100.64 -5.39, 105.4 -2.42, 118.6 1.38" stroke="#1e1e1e" stroke-width="1" fill="none"></path></g></g><mask></mask><g stroke-linecap="round"><g transform="translate(615.0629021570878 115.51301876274852) rotate(0 50.0926233637789 -17.053912963485402)"><path d="M0.39 1.08 C17.15 -4.5, 84.36 -28.56, 100.93 -34.25 M-0.87 0.6 C15.77 -4.72, 83.76 -26.88, 100.37 -32.79" stroke="#1e1e1e" stroke-width="1" fill="none"></path></g><g transform="translate(615.0629021570878 115.51301876274852) rotate(0 50.0926233637789 -17.053912963485402)"><path d="M19.72 -14.78 C15.03 -8.25, 6.62 -4.93, 0.39 1.08 M19.72 -14.78 C12.75 -8.97, 3.73 -1.59, 0.39 1.08" stroke="#1e1e1e" stroke-width="1" fill="none"></path></g><g transform="translate(615.0629021570878 115.51301876274852) rotate(0 50.0926233637789 -17.053912963485402)"><path d="M25.39 1.36 C18.94 2.58, 8.66 0.58, 0.39 1.08 M25.39 1.36 C16.29 0.93, 5.07 2.07, 0.39 1.08" stroke="#1e1e1e" stroke-width="1" fill="none"></path></g><g transform="translate(615.0629021570878 115.51301876274852) rotate(0 50.0926233637789 -17.053912963485402)"><path d="M80.86 -17.16 C89.19 -21.14, 93.59 -28.21, 100.37 -32.79 M80.86 -17.16 C89.07 -23.72, 95.1 -28.53, 100.37 -32.79" stroke="#1e1e1e" stroke-width="1" fill="none"></path></g><g transform="translate(615.0629021570878 115.51301876274852) rotate(0 50.0926233637789 -17.053912963485402)"><path d="M75.38 -33.36 C85.41 -32.02, 91.62 -33.74, 100.37 -32.79 M75.38 -33.36 C85.64 -33.66, 93.8 -32.2, 100.37 -32.79" stroke="#1e1e1e" stroke-width="1" fill="none"></path></g></g><mask></mask><g stroke-linecap="round"><g transform="translate(622.0629021570878 205.67873744267274) rotate(0 48.34920187985392 5.518996700324351)"><path d="M0.34 -0.4 C16.57 1.47, 80.88 8.95, 96.74 11 M-0.95 -1.66 C15.19 0.43, 79.36 10.58, 95.81 12.52" stroke="#1e1e1e" stroke-width="1" fill="none"></path></g><g transform="translate(622.0629021570878 205.67873744267274) rotate(0 48.34920187985392 5.518996700324351)"><path d="M24.66 -6.16 C18.04 -4.62, 12.7 -5.28, 0.34 -0.4 M24.66 -6.16 C14.99 -4.74, 7.42 -1.63, 0.34 -0.4" stroke="#1e1e1e" stroke-width="1" fill="none"></path></g><g transform="translate(622.0629021570878 205.67873744267274) rotate(0 48.34920187985392 5.518996700324351)"><path d="M22.68 10.82 C16.57 8.21, 11.72 3.41, 0.34 -0.4 M22.68 10.82 C13.59 5.98, 6.76 2.81, 0.34 -0.4" stroke="#1e1e1e" stroke-width="1" fill="none"></path></g><g transform="translate(622.0629021570878 205.67873744267274) rotate(0 48.34920187985392 5.518996700324351)"><path d="M71.36 17.72 C76.67 16.44, 83.25 13.11, 95.81 12.52 M71.36 17.72 C79.63 15.38, 90.1 14.44, 95.81 12.52" stroke="#1e1e1e" stroke-width="1" fill="none"></path></g><g transform="translate(622.0629021570878 205.67873744267274) rotate(0 48.34920187985392 5.518996700324351)"><path d="M73.73 0.78 C78.44 3.65, 84.43 4.46, 95.81 12.52 M73.73 0.78 C81.27 4.7, 90.86 10.02, 95.81 12.52" stroke="#1e1e1e" stroke-width="1" fill="none"></path></g></g><mask></mask></svg>
